<svg xmlns="http://www.w3.org/2000/svg" viewBox="0 0 131.79 118.59">
  <defs>
    <style>
      .cls-2{fill:#fff}.cls-4{opacity:.3}.cls-4,.cls-6{fill:#f5a8a0}.cls-8{fill:#3e6177}
    </style>
  </defs>
  <g id="Layer_2" data-name="Layer 2">
    <g id="Layer_1-2" data-name="Layer 1">
      <path class="cls-2" d="M114.23 41.64v43.92a6.52 6.52 0 0 1-6.51 6.52l-79.66.05a6.52 6.52 0 0 1-6.52-6.55L21.72 42a6.52 6.52 0 0 1 6.48-6.49l79.47-.42a6.52 6.52 0 0 1 6.56 6.55Z"/>
      <g opacity=".3">
        <path class="cls-4" transform="rotate(-46.48 67.9979 56.3675)" d="M56.47 54.87h23.07v3H56.47z"/>
        <path class="cls-4" transform="rotate(-47.29 71.779 59.2983)" d="M64.37 57.8h14.8v3h-14.8z"/>
      </g>
      <path d="M70.19 44.69v90.9a5.68 5.68 0 0 1-5.68-5.68V50.37a5.68 5.68 0 0 1 5.68-5.68Z" transform="rotate(-90 67.345 90.135)" fill="#e2e9f1"/>
      <path class="cls-6" d="M77.29 30.75a6.49 6.49 0 1 1 6.49-6.49 6.5 6.5 0 0 1-6.49 6.49Zm0-10a3.49 3.49 0 1 0 3.49 3.49 3.5 3.5 0 0 0-3.49-3.48Z"/>
      <circle class="cls-6" cx="66.6" cy="27.89" r="2.13"/>
      <circle cx="31.77" cy="97.57" r="2.13" fill="#d5dfeb"/>
      <path class="cls-8" d="M42 106.29a5.37 5.37 0 1 1 5.37-5.37 5.38 5.38 0 0 1-5.37 5.37Zm0-7.74a2.37 2.37 0 1 0 2.37 2.37A2.37 2.37 0 0 0 42 98.55Zm-15-4.92a8 8 0 0 1-8-8.05L19.22 42a8 8 0 0 1 8-8l79.47-.42a8 8 0 0 1 8 8v43.98a8 8 0 0 1-8 8l-79.67.05Zm79.67-57L27.21 37a5 5 0 0 0-5 5L22 85.59a5 5 0 0 0 5 5l79.67-.05a5 5 0 0 0 5-5v-43.9a5 5 0 0 0-5-5Z"/>
      <path class="cls-8" d="M66.88 75.64a10.78 10.78 0 0 1-7.67-3.18L33.1 46.36l2.12-2.12 26.11 26.1a7.85 7.85 0 0 0 11.1 0l26.11-26.11 2.12 2.12-26.11 26.11a10.78 10.78 0 0 1-7.67 3.18Z"/>
      <path class="cls-8" transform="rotate(-48.76 40.3012 71.0868)" d="M25.65 69.58h29.3v3h-29.3z"/>
      <path class="cls-8" transform="rotate(-41.23 93.457 71.0848)" d="M91.97 56.43h3v29.3h-3z"/>
      <path class="cls-2" d="M104.89 38.89h2v10.84h-2zm0 12.39h2v4.65h-2zm0 6.19h2v1.55h-2z"/>
      <path class="cls-2" d="M106.32 43.88h2v12.69h-2zm0 14.5h2v5.44h-2zm0 7.25h2v1.81h-2z"/>
      <circle class="cls-2" cx="105.62" cy="41.95" r="26.17"/>
      <circle class="cls-6" cx="106.53" cy="41.95" r="21.23"/>
      <path class="cls-8" d="M105.62 64.68a22.73 22.73 0 1 1 22.73-22.73 22.76 22.76 0 0 1-22.73 22.73Zm0-42.47a19.73 19.73 0 1 0 19.73 19.73 19.76 19.76 0 0 0-19.73-19.72Z"/>
      <path class="cls-2" d="M103.7 51.43a1.92 1.92 0 0 1-1.1-.35l-7.67-5.37a1.5 1.5 0 0 1 1.72-2.46l6.82 4.75 11.13-14.84A1.5 1.5 0 1 1 117 35l-11.76 15.65a1.92 1.92 0 0 1-1.54.78Z"/>
    </g>
  </g>
</svg>